<svg width="512" height="512" viewBox="0 0 512 512" fill="none" xmlns="http://www.w3.org/2000/svg">
<path d="M430.33 107.616L416.98 120.966L421.222 125.209L434.573 111.859L430.33 107.616Z" fill="#5E6175"/>
<path d="M406.54 94.3098H400.54V113.19H406.54V94.3098Z" fill="#5E6175"/>
<path d="M448.39 134.51H429.51V140.51H448.39V134.51Z" fill="#5E6175"/>
<path d="M425.52 353.46V388C425.52 393.045 424.526 398.041 422.596 402.703C420.665 407.364 417.835 411.599 414.267 415.167C410.7 418.735 406.464 421.565 401.803 423.495C397.142 425.426 392.146 426.42 387.1 426.42H151.24C161.4 426.326 171.117 422.248 178.3 415.063C185.483 407.877 189.559 398.16 189.65 388V353.47L425.52 353.46Z" fill="url(#paint0_linear_2005_10)"/>
<path style="mix-blend-mode:multiply" d="M425.52 353.46V388C425.52 393.045 424.526 398.041 422.596 402.703C420.665 407.364 417.835 411.599 414.267 415.167C410.7 418.735 406.464 421.565 401.803 423.495C397.142 425.426 392.146 426.42 387.1 426.42H330.24C331.24 424.09 328.13 429.69 372.15 353.42L425.52 353.46Z" fill="url(#paint1_linear_2005_10)"/>
<path d="M189.66 353.47V388C189.742 393.097 188.81 398.159 186.916 402.892C185.022 407.625 182.206 411.933 178.631 415.567C175.055 419.2 170.793 422.086 166.091 424.056C161.389 426.025 156.343 427.04 151.245 427.04C146.148 427.04 141.101 426.025 136.399 424.056C131.698 422.086 127.435 419.2 123.86 415.567C120.285 411.933 117.468 407.625 115.574 402.892C113.681 398.159 112.748 393.097 112.83 388V353.47H189.66Z" fill="url(#paint2_linear_2005_10)"/>
<path d="M36.0001 130.35H112.83V95.7998C112.912 90.7029 111.979 85.6406 110.086 80.9079C108.192 76.1751 105.376 71.8665 101.8 68.233C98.2251 64.5995 93.9625 61.7139 89.2609 59.7441C84.5592 57.7744 79.5127 56.76 74.4151 56.76C69.3176 56.76 64.271 57.7744 59.5694 59.7441C54.8678 61.7139 50.6051 64.5995 47.0298 68.233C43.4545 71.8665 40.638 76.1751 38.7444 80.9079C36.8507 85.6406 35.9179 90.7029 36.0001 95.7998V130.35Z" fill="url(#paint3_linear_2005_10)"/>
<path d="M343.13 119.43L339.6 123L372.06 151.6V353.5H189.66V388C189.742 393.097 188.81 398.159 186.916 402.892C185.022 407.625 182.206 411.933 178.63 415.567C175.055 419.2 170.793 422.086 166.091 424.056C161.389 426.025 156.343 427.04 151.245 427.04C146.148 427.04 141.101 426.025 136.399 424.056C131.698 422.086 127.435 419.2 123.86 415.567C120.285 411.933 117.468 407.625 115.574 402.892C113.681 398.159 112.748 393.097 112.83 388V318L148.05 284.78L146.38 283.09H112.83V95.7899C112.825 85.602 108.773 75.8334 101.567 68.6322C94.3598 61.4311 84.588 57.3872 74.4001 57.3899H333.63C343.818 57.3872 353.59 61.4311 360.797 68.6322C368.003 75.8334 372.055 85.602 372.06 95.7899V119.43H343.13Z" fill="#F5F5F5"/>
<path d="M151.24 429.44C128.79 429.44 109.83 410.44 109.83 388.02V316.69L142.28 286.08H109.83V95.7899C109.817 86.4001 106.079 77.3991 99.4365 70.7623C92.7941 64.1256 83.7899 60.3952 74.4001 60.3899V54.3899H333.63C344.61 54.3978 355.139 58.7612 362.906 66.5226C370.673 74.284 375.044 84.8096 375.06 95.7899V122.43H344.38L343.98 122.83L375.06 150.21V356.47H192.66V388C192.66 410.47 173.69 429.44 151.24 429.44ZM115.83 319.28V388C115.83 407.2 132.05 423.42 151.24 423.42C170.43 423.42 186.66 407.2 186.66 388V350.47H369.06V152.92L335.22 123.1L341.89 116.43H369.06V95.7899C369.047 86.4001 365.309 77.3991 358.667 70.7623C352.024 64.1256 343.02 60.3952 333.63 60.3899H95.8601C101.957 64.0724 107 69.2651 110.504 75.4663C114.007 81.6674 115.852 88.6675 115.86 95.7899V280.08H147.65L152.38 284.83L115.83 319.28Z" fill="#5E6175"/>
<path d="M320 146.81H282.05L266.03 130.78L270.27 126.54L284.54 140.81H317.51L341.89 116.43H372.06V122.43H344.38L320 146.81Z" fill="#5E6175"/>
<path d="M404.72 162.44L375.8 135.1H404.72V162.44Z" fill="#F5F5F5"/>
<path d="M115.83 133.35H33.0001V95.7999C32.9148 90.307 33.9229 84.8521 35.9659 79.7526C38.0089 74.6531 41.0459 70.0109 44.9001 66.0964C48.7543 62.1818 53.3487 59.0731 58.4158 56.9511C63.483 54.8291 68.9216 53.7363 74.4151 53.7363C79.9086 53.7363 85.3473 54.8291 90.4144 56.9511C95.4815 59.0731 100.076 62.1818 103.93 66.0964C107.784 70.0109 110.821 74.6531 112.864 79.7526C114.907 84.8521 115.915 90.307 115.83 95.7999V133.35ZM39.0001 127.35H109.83V95.7999C109.909 91.0991 109.051 86.4295 107.307 82.0636C105.563 77.6976 102.967 73.7226 99.6704 70.3703C96.374 67.0181 92.4431 64.3556 88.1071 62.5382C83.7711 60.7208 79.1166 59.7848 74.4151 59.7848C69.7136 59.7848 65.0592 60.7208 60.7231 62.5382C56.3871 64.3556 52.4563 67.0181 49.1599 70.3703C45.8634 73.7226 43.2674 77.6976 41.5231 82.0636C39.7788 86.4295 38.9211 91.0991 39.0001 95.7999V127.35ZM151.24 429.44V423.44C170.44 423.44 186.66 407.22 186.66 388.02V350.47H428.52V388C428.506 398.51 424.502 408.623 417.318 416.295C410.135 423.967 400.307 428.626 389.82 429.33C389.81 429.51 401.54 429.44 151.24 429.44ZM172.37 423.44H387.1C396.494 423.429 405.5 419.691 412.141 413.047C418.782 406.402 422.515 397.394 422.52 388V356.47H192.66V388C192.587 395.148 190.683 402.159 187.131 408.363C183.579 414.567 178.497 419.757 172.37 423.44Z" fill="#5E6175"/>
<path d="M233.38 332.6L214.39 313.6H172.65L145.13 286.09H112.83V280.09H147.62L175.13 307.6H216.87L237.62 328.35L233.38 332.6Z" fill="#5E6175"/>
<path d="M86.25 322.5L109.49 299.26H86.25V322.5Z" fill="#F5F5F5"/>
<path d="M407.72 169.4L368.25 132.1H407.72V169.4ZM383.34 138.1L401.72 155.48V138.1H383.34ZM83.25 329.74V296.26H116.73L83.25 329.74ZM89.25 302.26V315.26L102.25 302.26H89.25Z" fill="#5E6175"/>
<path d="M221.004 175.544L189.086 207.462L199.89 218.267L231.809 186.348L221.004 175.544Z" fill="#5E6175"/>
<path d="M199.89 175.544L189.086 186.348L221.004 218.267L231.809 207.462L199.89 175.544Z" fill="#5E6175"/>
<path d="M295.295 175.543L263.376 207.462L274.181 218.267L306.1 186.348L295.295 175.543Z" fill="#5E6175"/>
<path d="M274.181 175.543L263.376 186.348L295.295 218.267L306.1 207.462L274.181 175.543Z" fill="#5E6175"/>
<path d="M264.61 277.65L247.59 260.63L230.56 277.65L213.55 260.64L196.76 277.43L186.4 267.07L213.55 239.92L230.56 256.93L247.59 239.92L264.61 256.93L281.63 239.92L308.77 267.07L298.42 277.43L281.63 260.64L264.61 277.65Z" fill="#5E6175"/>
<path d="M412 320.88H406V314.88H412V320.88ZM412 304.88H406V298.88H412V304.88ZM412 288.88H406V282.88H412V288.88ZM412 272.88H406V266.88H412V272.88ZM412 256.88H406V250.88H412V256.88ZM412 240.88H406V234.88H412V240.88ZM412 224.88H406V218.88H412V224.88ZM412 208.88H406V202.88H412V208.88ZM412 192.88H406V186.88H412V192.88ZM92.7302 451.68H86.7302V445.68H92.7302V451.68ZM92.7302 435.68H86.7302V429.68H92.7302V435.68ZM92.7302 419.68H86.7302V413.68H92.7302V419.68ZM92.7302 403.68H86.7302V397.68H92.7302V403.68ZM92.7302 387.68H86.7302V381.68H92.7302V387.68ZM92.7302 371.68H86.7302V365.68H92.7302V371.68ZM92.7302 355.68H86.7302V349.68H92.7302V355.68ZM333.14 452.08H327.14V446.08H333.14V452.08ZM317.14 452.08H311.14V446.08H317.14V452.08ZM301.14 452.08H295.14V446.08H301.14V452.08ZM285.14 452.08H279.14V446.08H285.14V452.08ZM269.14 452.08H263.14V446.08H269.14V452.08ZM253.14 452.08H247.14V446.08H253.14V452.08ZM237.14 452.08H231.14V446.08H237.14V452.08ZM221.14 452.08H215.14V446.08H221.14V452.08ZM205.14 452.08H199.14V446.08H205.14V452.08ZM189.14 452.08H183.14V446.08H189.14V452.08ZM173.14 452.08H167.14V446.08H173.14V452.08ZM157.14 452.08H151.14V446.08H157.14V452.08ZM141.14 452.08H135.14V446.08H141.14V452.08ZM125.14 452.08H119.14V446.08H125.14V452.08ZM109.14 452.08H103.14V446.08H109.14V452.08Z" fill="#A9AFC4"/>
<path d="M422.39 342.2L473.91 431.43C475.267 433.78 475.981 436.446 475.981 439.16C475.981 441.874 475.267 444.54 473.91 446.891C472.553 449.241 470.601 451.192 468.251 452.549C465.9 453.906 463.234 454.62 460.52 454.62H357.52C354.806 454.62 352.14 453.906 349.79 452.549C347.439 451.192 345.487 449.241 344.13 446.891C342.773 444.54 342.059 441.874 342.059 439.16C342.059 436.446 342.773 433.78 344.13 431.43L395.65 342.2C397.007 339.856 398.957 337.91 401.304 336.557C403.65 335.205 406.311 334.492 409.02 334.492C411.729 334.492 414.39 335.205 416.736 336.557C419.083 337.91 421.033 339.856 422.39 342.2Z" fill="#F5F5F5"/>
<path d="M460.52 457.62H357.52C354.279 457.622 351.094 456.771 348.285 455.152C345.477 453.532 343.145 451.202 341.523 448.396C339.902 445.589 339.047 442.405 339.047 439.163C339.046 435.922 339.899 432.737 341.52 429.93L393 340.7C394.616 337.885 396.947 335.546 399.756 333.92C402.565 332.293 405.754 331.437 409 331.437C412.246 331.437 415.435 332.293 418.244 333.92C421.053 335.546 423.384 337.885 425 340.7L476.51 429.93C478.134 432.736 478.989 435.92 478.991 439.162C478.992 442.404 478.139 445.589 476.518 448.396C474.897 451.204 472.565 453.534 469.756 455.154C466.948 456.773 463.762 457.624 460.52 457.62ZM398.21 343.7L346.7 432.93C345.603 434.824 345.025 436.973 345.023 439.161C345.022 441.349 345.597 443.499 346.691 445.395C347.785 447.29 349.36 448.863 351.255 449.956C353.151 451.049 355.302 451.623 357.49 451.62H460.49C462.677 451.62 464.826 451.044 466.72 449.95C468.614 448.857 470.187 447.284 471.28 445.39C472.374 443.496 472.949 441.347 472.949 439.16C472.949 436.973 472.374 434.824 471.28 432.93L419.79 343.7C418.698 341.804 417.126 340.228 415.232 339.133C413.338 338.038 411.188 337.461 409 337.461C406.812 337.461 404.662 338.038 402.768 339.133C400.874 340.228 399.302 341.804 398.21 343.7Z" fill="#5E6175"/>
<path d="M398.88 366.32V394.36L402.04 411.88H408.99V411.89L415.94 411.88L419.11 394.35L419.12 366.28L398.88 366.32Z" fill="#E1830E"/>
<path d="M416.58 424.38H401.39V439.57H416.58V424.38Z" fill="#E1830E"/>
<path d="M80.8301 216.8C78.9641 216.802 77.1396 216.25 75.5873 215.215C74.035 214.179 72.8248 212.707 72.1098 210.983C71.3948 209.26 71.2072 207.363 71.5708 205.533C71.9343 203.703 72.8326 202.021 74.152 200.702C75.4715 199.383 77.1526 198.484 78.9828 198.121C80.813 197.757 82.7099 197.945 84.4334 198.66C86.1569 199.375 87.6296 200.585 88.665 202.137C89.7004 203.689 90.252 205.514 90.2501 207.38C90.2474 209.877 89.2541 212.272 87.4881 214.038C85.7221 215.804 83.3276 216.797 80.8301 216.8ZM80.8301 203.95C80.1513 203.948 79.4871 204.147 78.9217 204.523C78.3564 204.899 77.9152 205.434 77.654 206.06C77.3929 206.687 77.3235 207.377 77.4548 208.043C77.586 208.709 77.9119 209.321 78.3911 209.802C78.8704 210.282 79.4816 210.61 80.1472 210.743C80.8128 210.876 81.503 210.809 82.1303 210.55C82.7577 210.29 83.294 209.851 83.6713 209.287C84.0486 208.722 84.2501 208.059 84.2501 207.38C84.2344 206.481 83.8678 205.625 83.2287 204.993C82.5896 204.362 81.7286 204.005 80.8301 204V203.95ZM51.0001 264.08C48.4435 264.084 45.9431 263.329 43.8156 261.912C41.6881 260.494 40.029 258.477 39.0483 256.116C38.0677 253.755 37.8095 251.156 38.3066 248.648C38.8037 246.14 40.0336 243.836 41.8407 242.028C43.6478 240.219 45.9508 238.987 48.4583 238.488C50.9657 237.989 53.5648 238.246 55.9266 239.224C58.2884 240.203 60.3068 241.861 61.7261 243.987C63.1455 246.114 63.902 248.613 63.9001 251.17C63.8974 254.591 62.5378 257.872 60.1194 260.292C57.7011 262.712 54.4215 264.075 51.0001 264.08ZM51.0001 244.25C49.6314 244.25 48.2935 244.656 47.1555 245.416C46.0175 246.177 45.1306 247.257 44.6068 248.522C44.0831 249.786 43.946 251.178 44.213 252.52C44.48 253.862 45.1391 255.095 46.1069 256.063C47.0747 257.031 48.3077 257.69 49.65 257.957C50.9924 258.224 52.3838 258.087 53.6482 257.563C54.9127 257.039 55.9935 256.152 56.7538 255.014C57.5142 253.876 57.9201 252.539 57.9201 251.17C57.9201 249.335 57.191 247.575 55.8932 246.277C54.5955 244.979 52.8354 244.25 51.0001 244.25Z" fill="#5E6175"/>
<defs>
<linearGradient id="paint0_linear_2005_10" x1="151.24" y1="389.95" x2="425.52" y2="389.95" gradientUnits="userSpaceOnUse">
<stop stop-color="#CACFDD"/>
<stop offset="1" stop-color="#EEF0F1"/>
</linearGradient>
<linearGradient id="paint1_linear_2005_10" x1="330.24" y1="389.95" x2="425.52" y2="389.95" gradientUnits="userSpaceOnUse">
<stop stop-color="#CACFDD"/>
<stop offset="1" stop-color="#EEF0F1"/>
</linearGradient>
<linearGradient id="paint2_linear_2005_10" x1="112.83" y1="389.96" x2="189.66" y2="389.96" gradientUnits="userSpaceOnUse">
<stop stop-color="#CACFDD"/>
<stop offset="1" stop-color="#EEF0F1"/>
</linearGradient>
<linearGradient id="paint3_linear_2005_10" x1="36.0001" y1="93.8698" x2="112.83" y2="93.8698" gradientUnits="userSpaceOnUse">
<stop stop-color="#CACFDD"/>
<stop offset="1" stop-color="#EEF0F1"/>
</linearGradient>
</defs>
</svg>
